<svg width="873" height="195" viewBox="0 0 873 195" fill="none" xmlns="http://www.w3.org/2000/svg">
<path d="M765.179 115.51H812.869" stroke="#4DA8FF" stroke-width="6"/>
<path d="M385.732 69.7844C385.732 69.7844 371.218 69.7846 344.262 69.7844C317.307 69.7844 322.491 126.941 344.262 126.941C366.034 126.941 385.732 126.941 385.732 126.941" stroke="#0B4679" stroke-width="14"/>
<path d="M236.441 129.02L254.584 98.8824M310.05 129.02L291.388 98.8824L272.727 68.7451L254.584 98.8824M254.584 98.8824L272.727 116.549L291.388 98.8824" stroke="#0B4679" stroke-width="14"/>
<path d="M490.443 130.059L508.585 99.9217M564.051 130.059L545.39 99.9217L526.728 69.7844L508.585 99.9217M508.585 99.9217L526.728 116.549L545.39 99.9217" stroke="#0B4679" stroke-width="14"/>
<path d="M753.775 134.216L771.918 104.078L790.061 73.9412L808.722 104.078L827.383 134.216" stroke="#4DA8FF" stroke-width="14"/>
<path d="M406.466 63.5491V98.8824M406.466 98.8824V133.177M406.466 98.8824H465.561V63.5491V133.177" stroke="#0B4679" stroke-width="14"/>
<path d="M645.616 69.7844C645.616 69.7844 631.101 69.7846 604.146 69.7844C577.191 69.7844 582.375 126.941 604.146 126.941C625.918 126.941 645.616 126.941 645.616 126.941" stroke="#0B4679" stroke-width="14"/>
<path d="M666.351 63.5491V98.8824M666.351 98.8824V133.177M666.351 98.8824H725.445V63.5491V133.177" stroke="#0B4679" stroke-width="14"/>
<path d="M851.228 134.216V63.5491" stroke="#4DA8FF" stroke-width="14"/>
<path d="M70.5061 182.084H125.239V153.904H150.65V129.246H178.407V78.3647H150.65V49.4016H125.239V22.7869H70.5061V49.4016H43.9218V78.3647H16.9465V129.246H43.9218V153.904H70.5061V182.084Z" fill="#0B4679" stroke="#0B4679" stroke-width="10"/>
<path d="M61.5144 137.857V67.4058H132.667V137.857H61.5144Z" fill="white" stroke="white" stroke-width="4"/>
<path d="M146.756 150.397C149.459 147.691 149.455 143.305 146.755 140.602C144.752 138.597 141.824 138.079 139.342 139.049L132.481 132.18L128.828 135.836L135.582 142.597C134.45 145.054 134.833 148.037 136.729 150.137L136.973 150.395L137.231 150.64C139.946 153.096 144.138 153.017 146.756 150.397ZM143.992 147.629C142.817 148.805 140.913 148.804 139.738 147.627C138.6 146.487 138.563 144.662 139.63 143.481L139.737 143.369C140.874 142.23 142.697 142.195 143.878 143.263L143.99 143.37C145.165 144.546 145.166 146.453 143.992 147.629Z" fill="white"/>
<path d="M48.4214 150.397C45.7189 147.691 45.7231 143.305 48.4231 140.602C50.4263 138.597 53.3536 138.079 55.8352 139.049L62.6971 132.18L66.3496 135.836L59.5963 142.597C60.7277 145.054 60.3446 148.037 58.4495 150.137L58.2043 150.395L57.9463 150.64C55.232 153.096 51.0398 153.017 48.4214 150.397ZM51.1859 147.629C52.3602 148.805 54.2648 148.804 55.4399 147.627C56.5784 146.487 56.6147 144.662 55.5479 143.481L55.4416 143.369C54.3039 142.23 52.481 142.195 51.2998 143.263L51.1875 143.37C50.0125 144.546 50.0118 146.453 51.1859 147.629Z" fill="white"/>
<path d="M46.8577 54.2978C44.1551 57.0037 44.1593 61.3887 46.8593 64.0918C48.8625 66.0972 51.7898 66.6153 54.2714 65.6453L61.1333 72.515L64.7858 68.8583L58.0325 62.0972C59.1639 59.6401 58.7808 56.6576 56.8857 54.5578L56.6406 54.2994L56.3825 54.054C53.6683 51.5987 49.4761 51.6766 46.8577 54.2978ZM49.6221 57.0653C50.7964 55.8897 52.7011 55.8905 53.8762 57.067C55.0146 58.2067 55.0509 60.0322 53.9841 61.214L53.8778 61.3259C52.7402 62.4645 50.9172 62.4995 49.736 61.4313L49.6238 61.3242C48.4487 60.1479 48.448 58.241 49.6221 57.0653Z" fill="white"/>
<path d="M41.9671 101.728C41.9673 104.688 44.3663 107.086 47.322 107.086C49.9702 107.086 52.1695 105.161 52.599 102.631H60.7325V100.283H52.4784C51.848 98.0245 49.778 96.3689 47.322 96.3689C44.3662 96.3689 41.9672 98.7666 41.9671 101.728ZM44.3128 101.728C44.3129 100.065 45.6602 98.7173 47.322 98.7173L47.477 98.7212C49.0156 98.7994 50.2495 100.034 50.3274 101.573L50.3312 101.728C50.331 103.338 49.0667 104.653 47.477 104.735L47.322 104.738C45.6603 104.738 44.313 103.39 44.3128 101.728Z" fill="white"/>
<path d="M152.214 102.511C152.214 99.5493 149.815 97.1516 146.859 97.1516C144.211 97.1516 142.012 99.0765 141.582 101.606H133.449V103.955H141.703C142.333 106.214 144.403 107.869 146.859 107.869C149.815 107.869 152.214 105.471 152.214 102.511ZM149.868 102.511C149.868 104.173 148.521 105.52 146.859 105.52L146.704 105.517C145.165 105.439 143.931 104.205 143.854 102.665L143.85 102.511C143.85 100.9 145.114 99.5845 146.704 99.5039L146.859 99.5C148.521 99.5 149.868 100.848 149.868 102.511Z" fill="white"/>
<path d="M97.3611 49.4016C94.4032 49.4018 92.0082 51.8035 92.0082 54.7626C92.0082 57.4138 93.9309 59.6157 96.458 60.0457V68.1885H98.8037V59.9249C101.06 59.2938 102.713 57.2214 102.713 54.7626C102.713 51.8034 100.318 49.4017 97.3611 49.4016ZM97.3611 51.75C99.0218 51.7501 100.367 53.099 100.367 54.7626L100.364 54.9178C100.286 56.4582 99.0531 57.6935 97.5151 57.7715L97.3611 57.7753C95.7519 57.7751 94.4384 56.5093 94.3578 54.9178L94.3539 54.7626C94.3539 53.099 95.7003 51.7502 97.3611 51.75Z" fill="white"/>
<path d="M97.3611 155.078C94.4032 155.078 92.0082 152.676 92.0082 149.717C92.0082 147.065 93.9309 144.864 96.458 144.434V136.291H98.8037V144.555C101.06 145.186 102.713 147.258 102.713 149.717C102.713 152.676 100.318 155.078 97.3611 155.078ZM97.3611 152.73C99.0218 152.73 100.367 151.381 100.367 149.717L100.364 149.562C100.286 148.021 99.0531 146.786 97.5151 146.708L97.3611 146.704C95.7519 146.704 94.4384 147.97 94.3578 149.562L94.3539 149.717C94.3539 151.381 95.7003 152.73 97.3611 152.73Z" fill="white"/>
<path d="M146.756 54.2977C144.053 51.5921 139.673 51.5962 136.973 54.2994C134.97 56.3049 134.453 59.2355 135.422 61.72L128.56 68.5897L132.212 72.2464L138.966 65.4853C141.42 66.618 144.399 66.2345 146.497 64.3372L146.755 64.0918L147 63.8335C149.452 61.1161 149.375 56.9191 146.756 54.2977ZM143.992 57.0653C145.166 58.241 145.165 60.1478 143.99 61.3243C142.852 62.464 141.028 62.5003 139.848 61.4324L139.737 61.3259C138.599 60.1869 138.564 58.3619 139.631 57.1794L139.738 57.067C140.913 55.8906 142.817 55.8899 143.992 57.0653Z" fill="white"/>
<path d="M72.4609 60.3606L87.7079 41.5737" stroke="#4DA8FF" stroke-width="4"/>
<path d="M121.72 60.3608L106.473 42.748" stroke="#4DA8FF" stroke-width="4"/>
<path d="M96.7707 26.7009L86.535 41.1748L88.4545 44.705V41.1748L91.3327 43.999L96.7707 35.8795L103.168 43.999V41.1748L105.407 44.705L107.646 42.2338L96.7707 26.7009Z" fill="#EAF7FF" stroke="#EAF7FF"/>
<path d="M72.4609 148.033L87.7079 166.82" stroke="#4DA8FF" stroke-width="4"/>
<path d="M121.72 148.033L106.473 165.645" stroke="#4DA8FF" stroke-width="4"/>
<path d="M96.7707 181.693L86.535 167.219L88.4545 163.688V167.219L91.3327 164.395L96.7707 172.514L103.168 164.395V167.219L105.407 163.688L107.646 166.16L96.7707 181.693Z" fill="#EAF7FF" stroke="#EAF7FF"/>
<path d="M50.5679 126.898L31.8025 111.633" stroke="#4DA8FF" stroke-width="4"/>
<path d="M50.5679 77.582L32.9753 92.8464" stroke="#4DA8FF" stroke-width="4"/>
<path d="M16.9465 102.56L31.4038 112.807L34.93 110.886H31.4038L34.2247 108.004L26.1146 102.56L34.2247 96.1551H31.4038L34.93 93.914L32.4617 91.6721L16.9465 102.56Z" fill="#EAF7FF" stroke="#EAF7FF"/>
<path d="M142.831 77.582L161.597 92.8464" stroke="#4DA8FF" stroke-width="4"/>
<path d="M142.831 126.898L160.424 111.633" stroke="#4DA8FF" stroke-width="4"/>
<path d="M176.453 101.92L161.995 91.6721L158.469 93.5939H161.995L159.174 96.4753L167.285 101.92L159.174 108.324H161.995L158.469 110.565L160.938 112.807L176.453 101.92Z" fill="#EAF7FF" stroke="#EAF7FF"/>
<path d="M77.296 125.332H65.4788L80.8279 79.7881H95.4665L110.815 125.332H98.9983L88.3138 91.2628H87.958L77.296 125.332ZM75.719 107.408H100.42V115.77H75.719V107.408ZM126.709 79.7881V125.332H115.713V79.7881H126.709Z" fill="#0B4679"/>
</svg>
