<svg width="433" height="327" viewBox="0 0 433 327" fill="none" xmlns="http://www.w3.org/2000/svg">
<path d="M170.5 227.5H240.5V191.5H273V160H308.5V95H273V58H240.5V24H170.5V58H136.5V95H102V160H136.5V191.5H170.5V227.5Z" fill="#0B4679" stroke="#0B4679" stroke-width="10"/>
<path d="M159 171V81H250V171H159Z" fill="white" stroke="white" stroke-width="4"/>
<path d="M268.02 187.02C271.476 183.563 271.471 177.961 268.018 174.508C265.456 171.946 261.712 171.284 258.538 172.523L249.762 163.747L245.091 168.419L253.728 177.056C252.281 180.195 252.771 184.005 255.195 186.688L255.508 187.018L255.838 187.331C259.31 190.468 264.671 190.368 268.02 187.02ZM264.484 183.484C262.982 184.986 260.547 184.985 259.044 183.482C257.588 182.026 257.541 179.694 258.906 178.184L259.042 178.041C260.497 176.587 262.828 176.542 264.339 177.907L264.482 178.044C265.985 179.546 265.986 181.982 264.484 183.484Z" fill="white"/>
<path d="M142.255 187.02C138.798 183.563 138.804 177.961 142.257 174.508C144.819 171.946 148.563 171.284 151.737 172.523L160.513 163.747L165.184 168.419L156.547 177.056C157.994 180.195 157.504 184.005 155.08 186.688L154.767 187.018L154.437 187.331C150.965 190.468 145.604 190.368 142.255 187.02ZM145.79 183.484C147.292 184.986 149.728 184.985 151.231 183.482C152.687 182.026 152.733 179.694 151.369 178.184L151.233 178.041C149.778 176.587 147.447 176.542 145.936 177.907L145.792 178.044C144.29 179.546 144.289 181.982 145.79 183.484Z" fill="white"/>
<path d="M140.255 64.2549C136.798 67.7116 136.804 73.3134 140.257 76.7666C142.819 79.3285 146.563 79.9904 149.737 78.7512L158.513 87.5272L163.184 82.8558L154.547 74.2186C155.994 71.0796 155.504 67.2695 153.08 64.587L152.767 64.2569L152.437 63.9434C148.965 60.8068 143.604 60.9063 140.255 64.2549ZM143.79 67.7904C145.292 66.2886 147.728 66.2896 149.231 67.7925C150.687 69.2485 150.733 71.5805 149.369 73.0902L149.233 73.2332C147.778 74.6878 145.447 74.7325 143.936 73.3678L143.792 73.2311C142.29 71.7283 142.289 69.2923 143.79 67.7904Z" fill="white"/>
<path d="M134 124.846C134 128.628 137.068 131.691 140.849 131.691C144.236 131.691 147.048 129.232 147.598 126H158V123H147.443C146.637 120.115 143.99 118 140.849 118C137.068 118 134 121.063 134 124.846ZM137 124.846C137 122.722 138.723 121 140.849 121L141.047 121.005C143.015 121.105 144.593 122.682 144.692 124.648L144.697 124.846C144.697 126.903 143.08 128.583 141.047 128.687L140.849 128.691C138.723 128.691 137 126.97 137 124.846Z" fill="white"/>
<path d="M275 125.846C275 122.063 271.932 119 268.151 119C264.764 119 261.952 121.459 261.402 124.691H251V127.691H261.557C262.363 130.577 265.01 132.691 268.151 132.691C271.932 132.691 275 129.628 275 125.846ZM272 125.846C272 127.97 270.277 129.691 268.151 129.691L267.953 129.687C265.985 129.587 264.407 128.01 264.308 126.043L264.303 125.846C264.303 123.788 265.92 122.108 267.953 122.005L268.151 122C270.277 122 272 123.722 272 125.846Z" fill="white"/>
<path d="M204.846 58C201.063 58.0003 198 61.0684 198 64.8486C198 68.2355 200.459 71.0483 203.691 71.5977V82H206.691V71.4434C209.577 70.6371 211.691 67.9897 211.691 64.8486C211.691 61.0683 208.628 58.0001 204.846 58ZM204.846 61C206.97 61.0001 208.691 62.7233 208.691 64.8486L208.687 65.0469C208.587 67.0147 207.01 68.5928 205.043 68.6924L204.846 68.6973C202.788 68.697 201.108 67.08 201.005 65.0469L201 64.8486C201 62.7234 202.722 61.0003 204.846 61Z" fill="white"/>
<path d="M204.846 193C201.063 193 198 189.932 198 186.151C198 182.764 200.459 179.952 203.691 179.402V169H206.691V179.557C209.577 180.363 211.691 183.01 211.691 186.151C211.691 189.932 208.628 193 204.846 193ZM204.846 190C206.97 190 208.691 188.277 208.691 186.151L208.687 185.953C208.587 183.985 207.01 182.407 205.043 182.308L204.846 182.303C202.788 182.303 201.108 183.92 201.005 185.953L201 186.151C201 188.277 202.722 190 204.846 190Z" fill="white"/>
<path d="M268.02 64.2549C264.563 60.7985 258.961 60.8038 255.508 64.257C252.946 66.819 252.284 70.5629 253.524 73.7366L244.748 82.5126L249.419 87.1841L258.056 78.5469C261.195 79.9939 265.005 79.5039 267.688 77.0802L268.018 76.7667L268.331 76.4366C271.468 72.9652 271.369 67.6037 268.02 64.2549ZM264.484 67.7904C265.986 69.2924 265.985 71.7283 264.482 73.2312C263.026 74.6871 260.694 74.7335 259.185 73.3693L259.042 73.2332C257.587 71.7783 257.542 69.4467 258.907 67.9361L259.044 67.7925C260.546 66.2897 262.982 66.2889 264.484 67.7904Z" fill="white"/>
<path d="M173 72L192.5 48" stroke="#4DA8FF" stroke-width="4"/>
<path d="M236 72L216.5 49.5" stroke="#4DA8FF" stroke-width="4"/>
<path d="M204.091 29L191 47.4902L193.455 52V47.4902L197.136 51.098L204.091 40.7255L212.273 51.098V47.4902L215.136 52L218 48.8431L204.091 29Z" fill="#EAF7FF" stroke="#EAF7FF"/>
<path d="M173 184L192.5 208" stroke="#4DA8FF" stroke-width="4"/>
<path d="M236 184L216.5 206.5" stroke="#4DA8FF" stroke-width="4"/>
<path d="M204.091 227L191 208.51L193.455 204V208.51L197.136 204.902L204.091 215.275L212.273 204.902V208.51L215.136 204L218 207.157L204.091 227Z" fill="#EAF7FF" stroke="#EAF7FF"/>
<path d="M145 157L121 137.5" stroke="#4DA8FF" stroke-width="4"/>
<path d="M145 94L122.5 113.5" stroke="#4DA8FF" stroke-width="4"/>
<path d="M102 125.909L120.49 139L125 136.545H120.49L124.098 132.864L113.725 125.909L124.098 117.727H120.49L125 114.864L121.843 112L102 125.909Z" fill="#EAF7FF" stroke="#EAF7FF"/>
<path d="M263 94L287 113.5" stroke="#4DA8FF" stroke-width="4"/>
<path d="M263 157L285.5 137.5" stroke="#4DA8FF" stroke-width="4"/>
<path d="M306 125.091L287.51 112L283 114.455H287.51L283.902 118.136L294.275 125.091L283.902 133.273H287.51L283 136.136L286.157 139L306 125.091Z" fill="#EAF7FF" stroke="#EAF7FF"/>
<path d="M179.184 155H164.07L183.701 96.8182H202.423L222.053 155H206.94L193.275 111.477H192.82L179.184 155ZM177.167 132.102H208.758V142.784H177.167V132.102ZM242.38 96.8182V155H228.317V96.8182H242.38Z" fill="#0B4679"/>
<path d="M361.064 300.549H392.882" stroke="#4DA8FF" stroke-width="6"/>
<path d="M107.904 269.922C107.904 269.922 98.2209 269.922 80.2366 269.922C62.2524 269.922 65.7113 308.206 80.2366 308.206C94.762 308.206 107.904 308.206 107.904 308.206" stroke="#0B4679" stroke-width="10"/>
<path d="M8.30032 309.598L20.405 289.412M20.405 289.412L32.5096 269.226L44.9601 289.412M20.405 289.412L32.5096 301.245L44.9601 289.412M57.4105 309.598L44.9601 289.412" stroke="#0B4679" stroke-width="10"/>
<path d="M177.765 310.294L189.87 290.108M189.87 290.108L201.974 269.922L214.425 290.108M189.87 290.108L201.974 301.245L214.425 290.108M226.875 310.294L214.425 290.108" stroke="#0B4679" stroke-width="10"/>
<path d="M353.455 313.078L365.56 292.892L377.664 272.706L390.115 292.892L402.565 313.078" stroke="#4DA8FF" stroke-width="10"/>
<path d="M121.738 265.745V289.412M121.738 289.412V312.382M121.738 289.412H161.165V265.745V312.382" stroke="#0B4679" stroke-width="10"/>
<path d="M281.294 269.922C281.294 269.922 271.61 269.922 253.626 269.922C235.642 269.922 239.1 308.206 253.626 308.206C268.152 308.206 281.294 308.206 281.294 308.206" stroke="#0B4679" stroke-width="10"/>
<path d="M295.128 265.745V289.412M295.128 289.412V312.382M295.128 289.412H334.554V265.745V312.382" stroke="#0B4679" stroke-width="10"/>
<path d="M418.474 313.078V265.745" stroke="#4DA8FF" stroke-width="10"/>
</svg>
